<svg height="661" viewBox="0 0 1134 300" width="2500" xmlns="http://www.w3.org/2000/svg"><path d="m0 0h1134v300h-1134z" fill="#0071bb"/><path d="m421.29 136.11v-81.15h71.76c14.79 0 38.6 2 38.6 21.29 0 9.48-8.32 16.17-17.99 18.59 12.05 3.62 17.99 10.28 17.99 19.39 0 19.89-22.6 21.79-38.6 21.85h-71.76zm26.35-34.19 7.53-12.44c1.94-2.82 5.13-4.5 8.54-4.52h29.33c5.24 0 9.51-2.4 9.51-6.46 0-4.07-4.23-6.51-9.51-6.51h-45.41v29.93zm0 0v34.15l7.53-12.46a10.46 10.46 0 0 1 8.54-4.52h28.94c5.48.09 9.82-3.8 9.82-8.54 0-4.75-4.25-8.57-9.82-8.57zm147.71-27.37-35.57 61.62h-30.98l49.6-81.21h33.9l49.55 81.15h-30.95l-8.32-14.46h-45.92l7.62-12.44c1.95-2.8 5.13-4.48 8.54-4.52h19.89zm215.44 0-35.54 61.62h-31.05l49.58-81.21h33.9l49.54 81.15h-30.87l-8.33-14.46h-45.91l7.53-12.44c1.93-2.8 5.11-4.49 8.51-4.52h19.92l-17.36-30.13h.08zm-100.94 44.55c6.03 0 10.83-2.91 10.83-8.81v-55.33h26.23v57.76c0 17.51-11.59 23.38-26.76 23.38h-43.84c-3.41-.04-6.58-1.72-8.53-4.52l-7.62-12.5zm215.34 0c6.03 0 10.86-2.91 10.86-8.81v-55.33h26.31v57.76c0 17.51-11.56 23.38-26.74 23.38h-43.84c-3.41-.02-6.6-1.71-8.53-4.52l-7.62-12.5zm-504.05 44.02h64.96v19.72h-42.46v19.34h38.39v18.67h-38.39v23.47h-22.51v-81.2zm80.27 0h22.6v81.21h-22.6zm42.11 0h21l33.42 42.92v-42.92h22.27v81.21h-19.72l-34.65-44.54v44.54h-22.31v-81.21zm89.57 69.14 12.52-14.96c7.39 6.19 16.7 9.63 26.34 9.75 6.03 0 9.28-2.09 9.28-5.57v-.23c0-3.36-2.67-5.23-13.68-7.77-17.3-3.95-30.63-8.81-30.63-25.52v-.23c0-15.07 11.95-25.99 31.44-25.99 13.8 0 24.59 3.71 33.4 10.79l-11.25 15.89c-7.43-5.23-15.53-8.02-22.73-8.02-5.45 0-8.12 2.32-8.12 5.23v.23c0 3.72 2.79 5.33 14.04 7.89 18.68 4.05 30.27 10.09 30.27 25.3v.23c0 16.57-13.11 26.44-32.81 26.44-14.42-.01-28.1-4.53-38.07-13.46zm86.42-69.14h65.31v19.15h-43.03v12.29h38.98v17.75h-38.98v12.9h43.62v19.13h-65.9zm82.02 0h38.4c12.41 0 21 3.25 26.44 8.81 4.76 4.64 7.2 10.91 7.2 18.91v.24c0 12.41-6.61 20.64-16.71 24.93l19.37 28.31h-25.99l-16.36-24.59h-9.85v24.59h-22.51v-81.2zm37.28 38.99c7.67 0 12.05-3.72 12.05-9.64v-.23c0-6.39-4.64-9.63-12.17-9.63h-14.73v19.5zm41.95-38.99h25.18l18.44 51.39 18.4-51.39h24.71l-32.95 81.79h-20.82zm-542.14 14.03c0 28.88-32.27 31.64-55.1 31.77h-20.53v-26h40.83v-19.84h-40.83v-26.97h45.2v-20.97h-69.14v93.83h-26.41v-117.94h70.92c21.09 0 55.1 3.01 55.1 30.92 0 13.8-11.83 23.95-25.61 27.44 17.07 5.27 25.57 13.73 25.57 27.76zm-66.14-133.11c-58.52 0-105.96 47.44-105.96 105.96s47.44 105.96 105.96 105.96 105.96-47.44 105.96-105.96c0-58.51-47.42-105.94-105.93-105.96z" fill="#fff"/></svg>